Coordinates
version=1
nRows=16
nColumns=40
inDegrees=yes

Units are S.I. units (second, meters, Newtons, ...)
If the header above contains a line with 'inDegrees', this indicates whether rotational values are in degrees (yes) or radians (no).

endheader
time	pelvis_tilt	pelvis_list	pelvis_rotation	pelvis_tx	pelvis_ty	pelvis_tz	hip_flexion_r	hip_adduction_r	hip_rotation_r	knee_angle_r	knee_angle_r_beta	ankle_angle_r	subtalar_angle_r	mtp_angle_r	hip_flexion_l	hip_adduction_l	hip_rotation_l	knee_angle_l	knee_angle_l_beta	ankle_angle_l	subtalar_angle_l	mtp_angle_l	lumbar_extension	lumbar_bending	lumbar_rotation	arm_flex_r	arm_add_r	arm_rot_r	elbow_flex_r	pro_sup_r	wrist_flex_r	wrist_dev_r	arm_flex_l	arm_add_l	arm_rot_l	elbow_flex_l	pro_sup_l	wrist_flex_l	wrist_dev_l
      2.21000000	    -19.00177137	     -5.41724159	      0.79933760	     -0.37245327	      0.83813578	     -0.73246793	     60.97171205	      9.52039362	     -3.83875523	     67.22397548	      1.17327971	     22.27316531	      0.00000000	      0.00000000	     21.20655971	     -4.29573537	      6.74025871	     89.87530885	      1.56862006	     -7.07547799	      0.00000000	      0.00000000	    -19.82831330	      6.90926869	      3.74545680	     89.89991656	    -14.66977079	     13.30241625	     54.31212008	     87.16342356	      0.00000000	      0.00000000	     89.91768516	     -7.25599043	     12.76174760	     50.60166507	     85.39291577	      0.00000000	      0.00000000
      2.21500000	    -19.04146730	     -5.46893034	      0.79775443	     -0.37263231	      0.83701456	     -0.73239108	     61.16492061	      9.61571905	     -3.79674515	     67.45201067	      1.17725967	     22.33193685	      0.00000000	      0.00000000	     21.23658107	     -4.36299201	      6.74902990	     89.93977695	      1.56974524	     -7.11535023	      0.00000000	      0.00000000	    -19.84416269	      6.95142974	      3.73933688	     89.90146901	    -14.60041941	     13.16799642	     54.33284000	     87.14444678	      0.00000000	      0.00000000	     89.91812239	     -7.17101881	     12.41668214	     50.61365098	     85.57411154	      0.00000000	      0.00000000
      2.22000000	    -19.05366818	     -5.61017522	      0.79467162	     -0.37266567	      0.83596520	     -0.73224328	     61.30181002	      9.76511290	     -3.87456484	     67.62903952	      1.18034941	     22.44108272	      0.00000000	      0.00000000	     21.23523580	     -4.55280154	      6.75635504	     90.02364856	      1.57120907	     -7.08056730	      0.00000000	      0.00000000	    -19.88498848	      7.06727988	      3.80443803	     89.90213008	    -14.61657222	     13.06899106	     54.40274426	     87.11781291	      0.00000000	      0.00000000	     89.91867859	     -7.13434870	     12.40121562	     50.65722281	     85.44314708	      0.00000000	      0.00000000
      2.22500000	    -19.18977488	     -5.64193323	      0.85749115	     -0.37286387	      0.83460384	     -0.73230449	     61.59757671	      9.75816651	     -3.90101433	     67.86905238	      1.18453842	     22.60974015	      0.00000000	      0.00000000	     21.40503897	     -4.55501784	      6.82984077	     90.14433095	      1.57331538	     -7.09283501	      0.00000000	      0.00000000	    -19.78526848	      7.11427043	      3.73111185	     89.90305919	    -14.60598491	     13.00707499	     54.50844197	     87.17032617	      0.00000000	      0.00000000	     89.91876111	     -7.14808857	     12.36335853	     50.73342514	     85.46142115	      0.00000000	      0.00000000
      2.23000000	    -19.18896777	     -5.71182977	      0.89309949	     -0.37298438	      0.83355103	     -0.73226103	     61.73896470	      9.82253704	     -3.92951641	     68.09303106	      1.18844759	     22.71615702	      0.00000000	      0.00000000	     21.39379737	     -4.64073979	      6.86150208	     90.20787433	      1.57442442	     -7.05798872	      0.00000000	      0.00000000	    -19.83935297	      7.16583825	      3.73657763	     89.90395418	    -14.63495153	     12.96386059	     54.55955409	     87.13742172	      0.00000000	      0.00000000	     89.91952930	     -7.09668867	     12.28996584	     50.79262877	     85.45778466	      0.00000000	      0.00000000
      2.23500000	    -19.27587471	     -5.74866981	      0.87063813	     -0.37311656	      0.83230848	     -0.73208050	     61.98814855	      9.89462458	     -3.93561055	     68.34545691	      1.19285325	     22.75735195	      0.00000000	      0.00000000	     21.47729255	     -4.69755979	      6.85564847	     90.29535253	      1.57595120	     -7.05770795	      0.00000000	      0.00000000	    -19.77360290	      7.16528608	      3.73418817	     89.90549168	    -14.59578761	     13.13409486	     54.50723253	     84.72710935	      0.00000000	      0.00000000	     89.92066324	     -7.07887334	     12.49485185	     50.77961712	     82.81592006	      0.00000000	      0.00000000
      2.24000000	    -19.30971245	     -5.86404614	      0.92977637	     -0.37321983	      0.83119777	     -0.73210291	     62.15824613	      9.96594540	     -3.99575016	     68.54071370	      1.19626113	     22.94943283	      0.00000000	      0.00000000	     21.51985799	     -4.81676402	      6.92899275	     90.39381757	      1.57766974	     -7.07022206	      0.00000000	      0.00000000	    -19.81788281	      7.29156376	      3.76476611	     89.90580606	    -14.65583993	     12.79302293	     54.69543294	     87.21905040	      0.00000000	      0.00000000	     89.92022274	     -7.02535176	     12.15139227	     50.92726697	     85.17581976	      0.00000000	      0.00000000
      2.24500000	    -19.34677554	     -5.92434972	      0.97026498	     -0.37331546	      0.83011178	     -0.73208533	     62.32974548	     10.00661666	     -4.02251995	     68.75680234	      1.20003258	     23.07501102	      0.00000000	      0.00000000	     21.55457174	     -4.87546908	      6.97084811	     90.46500119	      1.57891213	     -7.11331172	      0.00000000	      0.00000000	    -19.83594958	      7.33965614	      3.75893692	     89.90654096	    -14.68240461	     12.72906745	     54.77496221	     87.05874359	      0.00000000	      0.00000000	     89.92059763	     -6.96692883	     12.03045054	     50.97261390	     85.66549667	      0.00000000	      0.00000000
      2.25000000	    -19.46473970	     -5.95471307	      0.99905315	     -0.37350218	      0.82873584	     -0.73200954	     62.61123948	     10.03815054	     -4.02315331	     69.00345139	      1.20433742	     23.29676542	      0.00000000	      0.00000000	     21.70447160	     -4.91152411	      7.00570004	     90.58989752	      1.58109198	     -7.17270191	      0.00000000	      0.00000000	    -19.76506742	      7.35366083	      3.75923479	     89.90722535	    -14.78917522	     12.83021716	     54.95968037	     86.86709792	      0.00000000	      0.00000000	     89.92102497	     -6.99287337	     12.20348171	     51.14143645	     85.19624390	      0.00000000	      0.00000000
      2.25500000	    -19.50547209	     -6.06705663	      1.07666411	     -0.37356019	      0.82762427	     -0.73200641	     62.80310136	     10.09090712	     -4.08365357	     69.23065806	      1.20830293	     23.28754881	      0.00000000	      0.00000000	     21.74209766	     -5.02195339	      7.09646627	     90.66425463	      1.58238976	     -7.12010781	      0.00000000	      0.00000000	    -19.75907581	      7.46839875	      3.71769424	     89.90802222	    -14.72486238	     12.61914643	     54.91131556	     87.09732912	      0.00000000	      0.00000000	     89.92138181	     -6.88390876	     11.91079146	     51.08342124	     85.52099517	      0.00000000	      0.00000000
      2.26000000	    -19.59912133	     -6.05415993	      1.11890015	     -0.37375874	      0.82640459	     -0.73203913	     63.05652122	     10.06847092	     -4.05676239	     69.48317393	      1.21271016	     23.32101056	      0.00000000	      0.00000000	     21.85143135	     -4.97943596	      7.13371926	     90.76414281	      1.58413313	     -7.10761894	      0.00000000	      0.00000000	    -19.70725004	      7.45524679	      3.65801161	     89.90896035	    -14.71594909	     12.55122002	     54.96622805	     87.04678717	      0.00000000	      0.00000000	     89.92184704	     -6.87539427	     11.84720877	     51.13225179	     85.55101735	      0.00000000	      0.00000000
      2.26500000	    -19.74033759	     -6.05433700	      1.13696812	     -0.37397052	      0.82500472	     -0.73195117	     63.37115062	     10.07764417	     -4.03992092	     69.74956894	      1.21735963	     23.50302483	      0.00000000	      0.00000000	     22.00696692	     -4.96459412	      7.16116341	     90.84869238	      1.58560880	     -7.17324929	      0.00000000	      0.00000000	    -19.61212870	      7.43846562	      3.64311237	     89.90961520	    -14.73053497	     12.47310395	     55.05209519	     87.00153160	      0.00000000	      0.00000000	     89.92206974	     -6.85837845	     11.80426870	     51.23509801	     85.74631842	      0.00000000	      0.00000000
      2.27000000	    -19.75343044	     -6.17256184	      1.24004345	     -0.37403628	      0.82396455	     -0.73199061	     63.54358905	     10.13755467	     -4.04751235	     69.99691921	      1.22167671	     23.47311552	      0.00000000	      0.00000000	     22.04130692	     -5.05957213	      7.30466894	     90.94498831	      1.58728948	     -7.16516974	      0.00000000	      0.00000000	    -19.64255734	      7.55444775	      3.60289254	     89.91051802	    -14.68690128	     12.56101176	     55.09768900	     83.78016905	      0.00000000	      0.00000000	     89.92261883	     -6.74872387	     11.94395631	     51.25106564	     82.53039262	      0.00000000	      0.00000000
      2.27500000	    -19.73558420	     -6.29108751	      1.25751892	     -0.37400422	      0.82296803	     -0.73185573	     63.61531585	     10.18003215	     -4.25999092	     70.13551982	      1.22409574	     23.70461954	      0.00000000	      0.00000000	     21.99145738	     -5.24676969	      7.29458469	     90.99522243	      1.58816624	     -7.15144394	      0.00000000	      0.00000000	    -19.73746385	      7.65934740	      3.69814715	     89.91106328	    -14.87436933	     12.35703017	     55.27142836	     87.06848018	      0.00000000	      0.00000000	     89.92296155	     -6.70613629	     11.72075790	     51.34277424	     85.24002343	      0.00000000	      0.00000000
      2.28000000	    -19.85022416	     -6.34299685	      1.30863684	     -0.37414144	      0.82166001	     -0.73178436	     63.88381005	     10.18260099	     -4.31742435	     70.37326728	      1.22824522	     23.84771491	      0.00000000	      0.00000000	     22.12472243	     -5.29056898	      7.36504964	     91.09111860	      1.58983994	     -7.21914106	      0.00000000	      0.00000000	    -19.65914223	      7.71246097	      3.60934145	     89.91203846	    -14.75548494	     12.20754598	     55.26993752	     87.02887015	      0.00000000	      0.00000000	     89.92308824	     -6.75708718	     11.60487318	     51.39656229	     85.61724225	      0.00000000	      0.00000000
      2.28500000	    -19.89590041	     -6.43662095	      1.34866091	     -0.37421438	      0.82056912	     -0.73171957	     64.06221535	     10.24764742	     -4.35836835	     70.57306550	      1.23173236	     23.94077107	      0.00000000	      0.00000000	     22.17051168	     -5.40319788	      7.42213031	     91.17313379	      1.59127137	     -7.21519986	      0.00000000	      0.00000000	    -19.66660316	      7.79820350	      3.60161617	     89.91268313	    -14.76608810	     12.17381049	     55.33298747	     87.01643700	      0.00000000	      0.00000000	     89.92353750	     -6.70839439	     11.54544135	     51.45040635	     85.48280130	      0.00000000	      0.00000000
